<svg width="209" height="26" viewBox="0 0 209 26" fill="none" xmlns="http://www.w3.org/2000/svg">
<path d="M67.684 11.392C68.412 10.1613 69.1053 8.93067 69.764 7.7C70.4227 6.46933 71.0293 5.23 71.584 3.982H76.056C75.068 5.92333 74.0453 7.804 72.988 9.624C71.9307 11.444 70.8127 13.2727 69.634 15.11V22H65.578V15.162C64.3993 13.3247 63.2727 11.4873 62.198 9.65C61.1407 7.81267 60.118 5.92333 59.13 3.982H63.836C64.3907 5.23 64.9887 6.46933 65.63 7.7C66.2713 8.93067 66.956 10.1613 67.684 11.392ZM88.2563 15.136C88.2563 16.2107 88.1003 17.1987 87.7883 18.1C87.4763 18.984 87.0256 19.7467 86.4363 20.388C85.847 21.012 85.1363 21.4973 84.3043 21.844C83.4896 22.1907 82.571 22.364 81.5483 22.364C80.543 22.364 79.6243 22.1907 78.7923 21.844C77.9776 21.4973 77.2756 21.012 76.6863 20.388C76.097 19.7467 75.6376 18.984 75.3083 18.1C74.979 17.1987 74.8143 16.2107 74.8143 15.136C74.8143 14.0613 74.979 13.082 75.3083 12.198C75.655 11.314 76.123 10.56 76.7123 9.936C77.319 9.312 78.0296 8.82667 78.8443 8.48C79.6763 8.13333 80.5776 7.96 81.5483 7.96C82.5363 7.96 83.4376 8.13333 84.2523 8.48C85.0843 8.82667 85.795 9.312 86.3843 9.936C86.9736 10.56 87.433 11.314 87.7623 12.198C88.0916 13.082 88.2563 14.0613 88.2563 15.136ZM84.3043 15.136C84.3043 13.94 84.0616 13.004 83.5763 12.328C83.1083 11.6347 82.4323 11.288 81.5483 11.288C80.6643 11.288 79.9796 11.6347 79.4943 12.328C79.009 13.004 78.7663 13.94 78.7663 15.136C78.7663 16.332 79.009 17.2853 79.4943 17.996C79.9796 18.6893 80.6643 19.036 81.5483 19.036C82.4323 19.036 83.1083 18.6893 83.5763 17.996C84.0616 17.2853 84.3043 16.332 84.3043 15.136ZM96.4573 22.26C95.3306 22.2427 94.4119 22.1213 93.7013 21.896C93.0079 21.6707 92.4533 21.3587 92.0373 20.96C91.6386 20.544 91.3613 20.05 91.2053 19.478C91.0666 18.8887 90.9973 18.23 90.9973 17.502V2.448L94.8713 1.824V16.722C94.8713 17.0687 94.8973 17.3807 94.9493 17.658C95.0013 17.9353 95.0966 18.1693 95.2353 18.36C95.3913 18.5507 95.6079 18.7067 95.8853 18.828C96.1626 18.9493 96.5353 19.0273 97.0033 19.062L96.4573 22.26ZM102.838 22H98.9638V8.324H102.838V22ZM103.202 4.372C103.202 5.08267 102.968 5.646 102.5 6.062C102.049 6.46067 101.512 6.66 100.888 6.66C100.264 6.66 99.7178 6.46067 99.2498 6.062C98.7992 5.646 98.5738 5.08267 98.5738 4.372C98.5738 3.66133 98.7992 3.10667 99.2498 2.708C99.7178 2.292 100.264 2.084 100.888 2.084C101.512 2.084 102.049 2.292 102.5 2.708C102.968 3.10667 103.202 3.66133 103.202 4.372ZM119.011 15.136C119.011 16.2107 118.855 17.1987 118.543 18.1C118.231 18.984 117.781 19.7467 117.191 20.388C116.602 21.012 115.891 21.4973 115.059 21.844C114.245 22.1907 113.326 22.364 112.303 22.364C111.298 22.364 110.379 22.1907 109.547 21.844C108.733 21.4973 108.031 21.012 107.441 20.388C106.852 19.7467 106.393 18.984 106.063 18.1C105.734 17.1987 105.569 16.2107 105.569 15.136C105.569 14.0613 105.734 13.082 106.063 12.198C106.41 11.314 106.878 10.56 107.467 9.936C108.074 9.312 108.785 8.82667 109.599 8.48C110.431 8.13333 111.333 7.96 112.303 7.96C113.291 7.96 114.193 8.13333 115.007 8.48C115.839 8.82667 116.55 9.312 117.139 9.936C117.729 10.56 118.188 11.314 118.517 12.198C118.847 13.082 119.011 14.0613 119.011 15.136ZM115.059 15.136C115.059 13.94 114.817 13.004 114.331 12.328C113.863 11.6347 113.187 11.288 112.303 11.288C111.419 11.288 110.735 11.6347 110.249 12.328C109.764 13.004 109.521 13.94 109.521 15.136C109.521 16.332 109.764 17.2853 110.249 17.996C110.735 18.6893 111.419 19.036 112.303 19.036C113.187 19.036 113.863 18.6893 114.331 17.996C114.817 17.2853 115.059 16.332 115.059 15.136ZM136.215 22.364C133.285 22.364 131.049 21.5493 129.507 19.92C127.981 18.2907 127.219 15.9767 127.219 12.978C127.219 11.4873 127.453 10.1613 127.921 9C128.389 7.82133 129.03 6.83333 129.845 6.036C130.659 5.22133 131.63 4.606 132.757 4.19C133.883 3.774 135.105 3.566 136.423 3.566C137.185 3.566 137.879 3.62667 138.503 3.748C139.127 3.852 139.673 3.982 140.141 4.138C140.609 4.27667 140.999 4.424 141.311 4.58C141.623 4.736 141.848 4.85733 141.987 4.944L140.817 8.22C140.262 7.92533 139.612 7.674 138.867 7.466C138.139 7.258 137.307 7.154 136.371 7.154C135.747 7.154 135.131 7.258 134.525 7.466C133.935 7.674 133.407 8.012 132.939 8.48C132.488 8.93067 132.124 9.52 131.847 10.248C131.569 10.976 131.431 11.86 131.431 12.9C131.431 13.732 131.517 14.512 131.691 15.24C131.881 15.9507 132.176 16.566 132.575 17.086C132.991 17.606 133.528 18.022 134.187 18.334C134.845 18.6287 135.643 18.776 136.579 18.776C137.168 18.776 137.697 18.7413 138.165 18.672C138.633 18.6027 139.049 18.5247 139.413 18.438C139.777 18.334 140.097 18.2213 140.375 18.1C140.652 17.9787 140.903 17.866 141.129 17.762L142.247 21.012C141.675 21.3587 140.869 21.6707 139.829 21.948C138.789 22.2253 137.584 22.364 136.215 22.364ZM149.818 19.296C150.199 19.296 150.563 19.2873 150.91 19.27C151.256 19.2527 151.534 19.2267 151.742 19.192V16.254C151.586 16.2193 151.352 16.1847 151.04 16.15C150.728 16.1153 150.442 16.098 150.182 16.098C149.818 16.098 149.471 16.124 149.142 16.176C148.83 16.2107 148.552 16.2887 148.31 16.41C148.067 16.5313 147.876 16.696 147.738 16.904C147.599 17.112 147.53 17.372 147.53 17.684C147.53 18.2907 147.729 18.7153 148.128 18.958C148.544 19.1833 149.107 19.296 149.818 19.296ZM149.506 7.96C150.65 7.96 151.603 8.09 152.366 8.35C153.128 8.61 153.735 8.98267 154.186 9.468C154.654 9.95333 154.983 10.5427 155.174 11.236C155.364 11.9293 155.46 12.7007 155.46 13.55V21.61C154.905 21.7313 154.134 21.87 153.146 22.026C152.158 22.1993 150.962 22.286 149.558 22.286C148.674 22.286 147.868 22.208 147.14 22.052C146.429 21.896 145.814 21.6447 145.294 21.298C144.774 20.934 144.375 20.466 144.098 19.894C143.82 19.322 143.682 18.62 143.682 17.788C143.682 16.9907 143.838 16.3147 144.15 15.76C144.479 15.2053 144.912 14.7633 145.45 14.434C145.987 14.1047 146.602 13.8707 147.296 13.732C147.989 13.576 148.708 13.498 149.454 13.498C149.956 13.498 150.398 13.524 150.78 13.576C151.178 13.6107 151.499 13.6627 151.742 13.732V13.368C151.742 12.7093 151.542 12.1807 151.144 11.782C150.745 11.3833 150.052 11.184 149.064 11.184C148.405 11.184 147.755 11.236 147.114 11.34C146.472 11.4267 145.918 11.5567 145.45 11.73L144.956 8.61C145.181 8.54067 145.458 8.47133 145.788 8.402C146.134 8.31533 146.507 8.246 146.906 8.194C147.304 8.12467 147.72 8.07267 148.154 8.038C148.604 7.986 149.055 7.96 149.506 7.96ZM166.945 11.756C166.598 11.6693 166.191 11.5827 165.723 11.496C165.255 11.392 164.752 11.34 164.215 11.34C163.972 11.34 163.678 11.366 163.331 11.418C163.002 11.4527 162.75 11.496 162.577 11.548V22H158.703V9.052C159.396 8.80933 160.211 8.584 161.147 8.376C162.1 8.15067 163.158 8.038 164.319 8.038C164.527 8.038 164.778 8.05533 165.073 8.09C165.368 8.10733 165.662 8.142 165.957 8.194C166.252 8.22867 166.546 8.28067 166.841 8.35C167.136 8.402 167.387 8.47133 167.595 8.558L166.945 11.756ZM168.508 15.266C168.508 14.0527 168.69 12.9953 169.054 12.094C169.435 11.1753 169.929 10.4127 170.536 9.806C171.142 9.19933 171.836 8.74 172.616 8.428C173.413 8.116 174.228 7.96 175.06 7.96C177.001 7.96 178.535 8.558 179.662 9.754C180.788 10.9327 181.352 12.6747 181.352 14.98C181.352 15.2053 181.343 15.4567 181.326 15.734C181.308 15.994 181.291 16.228 181.274 16.436H172.486C172.572 17.2333 172.945 17.866 173.604 18.334C174.262 18.802 175.146 19.036 176.256 19.036C176.966 19.036 177.66 18.9753 178.336 18.854C179.029 18.7153 179.592 18.5507 180.026 18.36L180.546 21.506C180.338 21.61 180.06 21.714 179.714 21.818C179.367 21.922 178.977 22.0087 178.544 22.078C178.128 22.1647 177.677 22.234 177.192 22.286C176.706 22.338 176.221 22.364 175.736 22.364C174.505 22.364 173.43 22.182 172.512 21.818C171.61 21.454 170.856 20.96 170.25 20.336C169.66 19.6947 169.218 18.9407 168.924 18.074C168.646 17.2073 168.508 16.2713 168.508 15.266ZM177.608 13.784C177.59 13.4547 177.53 13.134 177.426 12.822C177.339 12.51 177.192 12.2327 176.984 11.99C176.793 11.7473 176.542 11.548 176.23 11.392C175.935 11.236 175.562 11.158 175.112 11.158C174.678 11.158 174.306 11.236 173.994 11.392C173.682 11.5307 173.422 11.7213 173.214 11.964C173.006 12.2067 172.841 12.4927 172.72 12.822C172.616 13.134 172.538 13.4547 172.486 13.784H177.608ZM183.431 15.266C183.431 14.0527 183.613 12.9953 183.977 12.094C184.359 11.1753 184.853 10.4127 185.459 9.806C186.066 9.19933 186.759 8.74 187.539 8.428C188.337 8.116 189.151 7.96 189.983 7.96C191.925 7.96 193.459 8.558 194.585 9.754C195.712 10.9327 196.275 12.6747 196.275 14.98C196.275 15.2053 196.267 15.4567 196.249 15.734C196.232 15.994 196.215 16.228 196.197 16.436H187.409C187.496 17.2333 187.869 17.866 188.527 18.334C189.186 18.802 190.07 19.036 191.179 19.036C191.89 19.036 192.583 18.9753 193.259 18.854C193.953 18.7153 194.516 18.5507 194.949 18.36L195.469 21.506C195.261 21.61 194.984 21.714 194.637 21.818C194.291 21.922 193.901 22.0087 193.467 22.078C193.051 22.1647 192.601 22.234 192.115 22.286C191.63 22.338 191.145 22.364 190.659 22.364C189.429 22.364 188.354 22.182 187.435 21.818C186.534 21.454 185.78 20.96 185.173 20.336C184.584 19.6947 184.142 18.9407 183.847 18.074C183.57 17.2073 183.431 16.2713 183.431 15.266ZM192.531 13.784C192.514 13.4547 192.453 13.134 192.349 12.822C192.263 12.51 192.115 12.2327 191.907 11.99C191.717 11.7473 191.465 11.548 191.153 11.392C190.859 11.236 190.486 11.158 190.035 11.158C189.602 11.158 189.229 11.236 188.917 11.392C188.605 11.5307 188.345 11.7213 188.137 11.964C187.929 12.2067 187.765 12.4927 187.643 12.822C187.539 13.134 187.461 13.4547 187.409 13.784H192.531ZM207.247 11.756C206.9 11.6693 206.493 11.5827 206.025 11.496C205.557 11.392 205.054 11.34 204.517 11.34C204.274 11.34 203.98 11.366 203.633 11.418C203.304 11.4527 203.052 11.496 202.879 11.548V22H199.005V9.052C199.698 8.80933 200.513 8.584 201.449 8.376C202.402 8.15067 203.46 8.038 204.621 8.038C204.829 8.038 205.08 8.05533 205.375 8.09C205.67 8.10733 205.964 8.142 206.259 8.194C206.554 8.22867 206.848 8.28067 207.143 8.35C207.438 8.402 207.689 8.47133 207.897 8.558L207.247 11.756Z" fill="#00024F"/>
<circle cx="3.6389" cy="3.3264" r="3.3264" fill="url(#paint0_linear_5166_7828)"/>
<path d="M9.43013 2.92312C9.47601 4.34545 8.76103 5.38925 8.45515 5.676H12.4124C17.9755 6.02011 19.9255 10.2068 19.352 14.3361C18.8932 17.6396 15.3373 19.383 12.9286 19.383C5.44992 19.1078 5.81698 13.017 5.81698 8.31418C5.41552 8.52447 4.34877 8.96799 3.2935 9.05975C2.23823 9.15151 0.731798 8.60094 0.0244606 8.31418C-0.0901754 10.4935 0.195249 15.0243 0.941492 17.3184C1.37786 18.6599 4.21113 24.8315 12.4124 25.1182C18.9734 25.3476 22.4107 21.3139 23.3092 19.2683C24.0892 20.6907 25.7174 22.1359 26.5777 22.8241L26.5835 22.8288C27.2356 23.3505 29.23 24.9462 33.9187 24.9462C40.5715 24.9462 43.4764 21.5575 45.5037 18.1787C48.0845 13.8773 46.7661 4.47161 39.425 1.20257C33.5522 -1.41266 28.3371 1.03052 26.4636 2.57901L29.2738 7.97007C30.5929 6.47892 32.084 6.02011 34.3781 6.02011C39.7118 6.02011 40.7435 10.6082 40.8015 12.042C40.8663 13.6466 40.0559 19.2683 34.3781 19.2683C26.7426 19.2683 26.5778 11.1244 23.022 5.676C19.7095 0.600436 14.6486 -0.288568 8.85661 0.342314C9.02867 0.609955 9.38425 1.5008 9.43013 2.92312Z" fill="url(#paint1_linear_5166_7828)"/>
<defs>
<linearGradient id="paint0_linear_5166_7828" x1="2.35301" y1="-0.783019" x2="15.5862" y2="12.4874" gradientUnits="userSpaceOnUse">
<stop stop-color="#00024F"/>
<stop offset="0.503125" stop-color="#504BFF"/>
<stop offset="1" stop-color="#FF1761"/>
</linearGradient>
<linearGradient id="paint1_linear_5166_7828" x1="-5.78774" y1="-0.00178331" x2="31.8918" y2="34.4713" gradientUnits="userSpaceOnUse">
<stop stop-color="#00024F"/>
<stop offset="0.503125" stop-color="#504BFF"/>
<stop offset="1" stop-color="#FF1761"/>
</linearGradient>
</defs>
</svg>
